<svg width="90" height="89" viewBox="0 0 90 89" fill="none" xmlns="http://www.w3.org/2000/svg">
<path d="M38.8418 32.151C39.5779 30.8905 39.9459 29.4499 40.1299 28.0093C40.498 25.1281 39.7619 22.4269 39.0258 19.9059C38.2897 17.3848 37.3696 15.2239 37.0015 12.8829C36.6335 10.542 36.6335 8.20099 37.7376 5.67993C35.3453 7.12054 34.2412 10.1818 34.0572 13.063C33.8731 15.9442 34.6092 18.6454 35.3453 20.9863C36.0814 23.5074 36.8175 25.6683 37.1856 28.0093C37.3696 30.3503 37.1856 32.6912 35.7134 35.0322C37.1856 34.3119 38.1057 33.2315 38.8418 32.151V32.151Z" fill="#6A6A6A"/>
<path d="M82.2715 45.6568C80.7993 45.2967 79.3271 45.1166 78.0389 45.4767C76.3827 45.8369 74.9105 46.7373 73.9904 47.9978C73.9904 47.8177 73.9904 47.6376 73.9904 47.4576C74.1744 44.7564 72.1502 42.4154 69.7578 41.8752C68.4697 41.6951 67.5496 41.8752 66.4454 41.8752H63.317C55.0359 42.2354 46.9388 42.4154 38.6577 42.7756C46.9388 43.1357 55.0359 43.3158 63.317 43.676H66.4454C67.3655 43.676 68.6537 43.676 69.2058 43.856C70.678 44.2162 71.7821 45.8369 71.5981 47.2775C71.046 51.0591 69.7578 54.8407 68.4697 58.4422C65.5253 65.8254 61.2927 72.4882 55.956 78.4307C54.6679 79.8713 53.3797 81.3119 51.9075 82.7525C51.1714 83.4729 50.6193 84.0131 50.0672 84.3732C49.3312 84.7334 48.5951 84.9135 47.859 84.9135H35.7134C35.5293 84.9135 27.8003 84.9135 27.9843 84.9135C27.4323 84.9135 26.8802 84.9135 26.5121 84.9135C25.408 84.9135 24.3039 84.3732 23.3837 83.6529C23.1997 83.4729 22.6476 82.9326 22.4636 82.7525C21.7275 82.0322 20.9914 81.3119 20.4393 80.5916C19.1512 79.151 17.863 77.7104 16.5748 76.0897C11.4222 70.1472 7.37362 63.1242 4.79728 55.7411C4.06119 53.9403 3.69314 51.9595 3.14107 50.1587L2.77302 48.7181C2.77302 48.3579 2.58899 47.6376 2.58899 47.4576C2.58899 46.7373 2.77302 46.017 3.14107 45.4767C3.50911 44.9365 4.24521 44.3963 4.98131 44.2162C5.53338 44.0361 6.82155 44.0361 7.74167 44.0361L13.8145 43.856C22.0956 43.4959 30.1926 43.3158 38.4737 42.9557C30.1926 42.5955 22.0956 42.4154 13.8145 42.0553L7.74167 41.8752C6.63753 41.8752 5.90143 41.6951 4.42923 41.8752C1.66887 42.4154 -0.171371 44.7564 0.0126528 47.4576C0.196677 48.1779 0.380701 48.538 0.380701 49.0783L0.564725 50.5189C0.932774 52.4997 1.48485 54.4805 2.03692 56.4614C4.42924 64.3847 8.47777 71.5878 13.6304 78.2506C14.9186 79.8713 16.2068 81.492 17.679 82.9326C18.4151 83.6529 19.1512 84.3732 19.8873 85.0935C20.2553 85.4537 20.6234 85.8138 20.9914 86.174C22.4636 87.7947 24.3039 88.515 26.1441 88.6951H27.8003C27.9843 88.6951 35.8974 88.6951 35.5293 88.6951H47.859C49.1471 88.515 50.4353 88.3349 51.5394 87.6146C52.6436 87.0744 53.7477 85.9939 54.2998 85.4537C55.772 84.0131 57.2442 82.3924 58.5324 80.9518C60.3726 78.7909 62.0288 76.6299 63.501 74.289C63.685 74.8292 63.8691 75.3694 64.4211 75.9096C64.9732 76.4499 65.5253 76.81 66.0774 76.9901C66.8135 77.1702 67.3655 77.1702 68.1016 77.1702C66.8135 76.9901 65.7093 76.2698 65.1572 75.3694C64.6052 74.469 64.7892 73.2085 65.1572 72.3081C65.8933 70.1472 67.7336 69.2468 70.1259 68.7066C72.3342 68.1664 74.9105 68.1664 77.6709 67.6261C80.4312 67.0859 83.0076 65.6453 85.2159 63.8445C87.2401 61.8637 88.8964 59.1625 89.0804 56.2813C89.2644 53.4001 88.3443 50.3388 86.32 48.358C85.0319 46.9173 83.7437 46.017 82.2715 45.6568V45.6568ZM85.3999 55.7411C85.2159 57.7219 84.1117 59.7028 82.4555 61.1434C80.9833 62.584 78.775 63.6644 76.7508 64.2047C74.5425 64.925 71.9661 64.925 69.2058 65.8254C68.8377 66.0054 68.4697 66.0054 68.1016 66.1855C69.2058 64.0246 70.1259 61.8637 70.862 59.7028C71.9661 56.2813 72.8863 52.8599 73.4383 49.4384C74.7265 48.1779 76.3827 47.6376 78.0389 47.4576C80.2472 47.2775 82.2715 48.358 83.5597 49.9786C85.0319 51.4192 85.768 53.7602 85.3999 55.7411V55.7411Z" fill="#6A6A6A"/>
<path d="M24.1198 26.9288C24.8559 25.6683 25.224 24.2277 25.408 22.7871C25.7761 19.9059 25.04 17.2047 24.3039 14.6837C23.5678 12.1626 22.6476 10.0017 22.2796 7.66069C21.9115 5.3197 21.9115 2.97871 23.0157 0.457642C20.6234 1.89825 19.5192 4.95955 19.3352 7.84076C19.1512 10.722 19.8873 13.4231 20.6234 15.7641C21.3595 18.2852 22.0956 20.4461 22.4636 22.7871C22.6476 25.1281 22.4636 27.4691 20.9914 29.8101C22.2796 29.2698 23.3837 28.1894 24.1198 26.9288V26.9288Z" fill="#6A6A6A"/>
<path d="M53.5637 26.9288C54.2998 25.6683 54.6678 24.2277 54.8519 22.7871C55.2199 19.9059 54.4838 17.2047 53.7477 14.6837C53.0116 12.1626 52.0915 10.0017 51.7235 7.66069C51.3554 5.3197 51.3554 2.97871 52.4596 0.457642C50.0673 1.89825 48.9631 4.95955 48.7791 7.84076C48.5951 10.722 49.3312 13.4231 50.0673 15.7641C50.8034 18.2852 51.5394 20.4461 51.9075 22.7871C52.0915 25.1281 51.9075 27.4691 50.4353 29.8101C51.9075 29.2698 52.8276 28.1894 53.5637 26.9288V26.9288Z" fill="#6A6A6A"/>
</svg>
